<svg xmlns="http://www.w3.org/2000/svg" viewBox="0 0 256 256" role="img" aria-labelledby="title desc">
  <title id="title">DeepVault Nexus icon</title>
  <desc id="desc">A vault-like hexagon with linked nodes representing a secure knowledge graph.</desc>
  <defs>
    <linearGradient id="bg" x1="32" y1="24" x2="224" y2="232" gradientUnits="userSpaceOnUse">
      <stop offset="0" stop-color="#0f172a"/>
      <stop offset="1" stop-color="#0f766e"/>
    </linearGradient>
    <linearGradient id="core" x1="76" y1="72" x2="180" y2="184" gradientUnits="userSpaceOnUse">
      <stop offset="0" stop-color="#f8fafc"/>
      <stop offset="1" stop-color="#bae6fd"/>
    </linearGradient>
  </defs>
  <rect width="256" height="256" rx="56" fill="url(#bg)"/>
  <path d="M128 38 185 71v65l-57 32-57-32V71z" fill="none" stroke="#7dd3fc" stroke-width="14" stroke-linejoin="round"/>
  <path d="M100 104h56a18 18 0 0 1 18 18v24a18 18 0 0 1-18 18h-56a18 18 0 0 1-18-18v-24a18 18 0 0 1 18-18Z" fill="url(#core)"/>
  <circle cx="128" cy="122" r="18" fill="#0f172a"/>
  <path d="M128 102v40M108 122h40" stroke="#0f172a" stroke-width="10" stroke-linecap="round"/>
  <circle cx="70" cy="86" r="10" fill="#f59e0b"/>
  <circle cx="186" cy="86" r="10" fill="#22c55e"/>
  <circle cx="70" cy="170" r="10" fill="#38bdf8"/>
  <circle cx="186" cy="170" r="10" fill="#f97316"/>
  <path d="M80 92 108 108M176 92 148 108M80 164 108 146M176 164 148 146" stroke="#e2e8f0" stroke-width="6" stroke-linecap="round"/>
</svg>
